<?xml version="1.0" ?><svg data-name="Layer 3" id="Layer_3" viewBox="0 0 48 48" xmlns="http://www.w3.org/2000/svg"><defs><style>.cls-1{fill:#c25e43;}.cls-2{fill:#fff2f3;}.cls-3{fill:#52526b;}.cls-4{fill:none;stroke:#686886;}.cls-4,.cls-5{stroke-linecap:round;stroke-linejoin:round;}.cls-5,.cls-6{fill:#d7cbff;}.cls-5{stroke:#4d4759;}.cls-7{fill:#ff9051;}.cls-8{fill:#666;}.cls-9{fill:#ffa866;}.cls-10{fill:#9ca19a;}.cls-11{fill:#4d4759;}.cls-12{fill:#ffd787;}.cls-13{fill:#e2a950;}.cls-14{fill:#686886;}.cls-15{fill:#e77440;}.cls-16{fill:#ff8163;}.cls-17{fill:#6d6f6a;}.cls-18{fill:#5979ff;}</style></defs><path class="cls-1" d="M29.46429,20.46429C34.51205,24,35.50343,30.06291,37.24051,37.24051l-7.49928,2.56306L26.73916,26.12013Z"/><path class="cls-2" d="M41.20123,32.85114a7.459,7.459,0,1,1-14.918,0c0-4.1195,2.74328-8,6.86278-8A7.77884,7.77884,0,0,1,41.20123,32.85114Z"/><path class="cls-3" d="M29.74123,33.72619c.47306-3.30362,3.68734-7.80362,8.03721-7.59934,6.449,1.90429,5.40013,10.91179.86609,12.98957A12.52364,12.52364,0,0,1,29.74123,33.72619Z"/><path class="cls-4" d="M40.31543,32.0542q.0077.10791.01147.216"/><path class="cls-4" d="M38.84205,28.90038a4.04168,4.04168,0,0,1,1.19505,1.776"/><ellipse class="cls-5" cx="27.74502" cy="33.58818" rx="1.99621" ry="2.44236"/><path class="cls-6" d="M35.0577,41.763a18.42707,18.42707,0,0,1-7.3514-2.09962,1.98184,1.98184,0,0,1-.86648-2.3363l.31746-.97256a11.32519,11.32519,0,0,0,10.08323,3.08524l-.057.53459A2.0031,2.0031,0,0,1,35.0577,41.763Z"/><path class="cls-7" d="M30.75,45.55H13.61c-1.7-2.47-1.29-8.42-.72-14.96.3-3.59.65-7.36.72-10.83,4.59-2.7,11.57-2.94,15.85.7C31.31,29.35,32.09,41.11,30.75,45.55Z"/><path class="cls-1" d="M17.93,45.55H13.61c-1.7-2.47-1.29-8.42-.72-14.96l.53.14C16.0651,38.07,20.77232,36.85957,17.93,45.55Z"/><path class="cls-8" d="M21.25488,29.81689a.49568.49568,0,0,1-.19043-.03759L17.543,28.333a.50008.50008,0,1,1,.38086-.92481l3.52148,1.44629a.5.5,0,0,1-.19043.9624Z"/><path class="cls-8" d="M28.25,29.57568a.50023.50023,0,0,1-.33691-.86963L29.23438,27.501a.50013.50013,0,0,1,.67382.73925l-1.32129,1.20508A.49841.49841,0,0,1,28.25,29.57568Z"/><path class="cls-9" d="M26.01,45.55H25a.58481.58481,0,0,1,.02-.13c1.69-6.37,1.23-14.66-1.3-23.34a.5.5,0,0,1,.96-.28C27.24,30.6,27.71,39.03,26.01,45.55Z"/><path class="cls-2" d="M25.12792,17.628a15.16139,15.16139,0,0,0-3.00732-.88592,13.49672,13.49672,0,0,0-3.00733-.24341l-3.29063-.296.16916,2.45291c.03945.99839,2.74116,2.43253,6.1288,3.06864s6.13391.03649,6.13391-1.3393l-.20407-2.16984Z"/><path class="cls-10" d="M28.05,18.22a1.16747,1.16747,0,0,1-.66.99005c-1.01.63-3.08.79-5.47.34a11.2061,11.2061,0,0,1-5.47-2.38,1.86007,1.86007,0,0,1-.67-1.26c0-1.37,2.75-1.97,6.13995-1.34C25.3,15.21,28.05,16.84,28.05,18.22Z"/><path class="cls-11" d="M27.39,19.21c-1.01.63-3.08.79-5.47.34a11.2061,11.2061,0,0,1-5.47-2.38c.57-.9,2.8-1.24,5.47-.73C24.57,16.93,26.79,18.1,27.39,19.21Z"/><path class="cls-12" d="M24.17,17.18l-.22,1.15-.14.77a1.33474,1.33474,0,0,1-.33.66,12.91528,12.91528,0,0,1-1.56-.21,14.38412,14.38412,0,0,1-1.83-.45,1.58821,1.58821,0,0,1,.02-.65l.22-.83.29-1.09a1.47677,1.47677,0,0,1,1.43-1.1h.67A1.47362,1.47362,0,0,1,24.17,17.18Z"/><path class="cls-13" d="M24.17,17.18l-.22,1.15a6.90006,6.90006,0,0,1-3.62-.71l.29-1.09a1.47677,1.47677,0,0,1,1.43-1.1h.67A1.47362,1.47362,0,0,1,24.17,17.18Z"/><path class="cls-12" d="M22.65631,5.85573a4.00093,4.00093,0,0,0-4.00095,4.001v1.15848a1.102,1.102,0,0,0-.83182-.41682,1.44484,1.44484,0,0,0-1.24,1.58521,1.44486,1.44486,0,0,0,1.24,1.58526,2.12815,2.12815,0,0,0,.83182-.33226,4.001,4.001,0,0,0,8.00195,0V9.85668A4.001,4.001,0,0,0,22.65631,5.85573Z"/><path class="cls-8" d="M19.08812,8.86563,19.792,8.0719a1.71865,1.71865,0,0,1,1.28589-.57834l4.80182,0a2.18535,2.18535,0,0,0,1.67061-.72308A7.3229,7.3229,0,0,0,28.819,4.506a.59582.59582,0,0,0-.555-.8028H26.60368a1.696,1.696,0,0,1-1.43615-.60069l-.6862-.87336c-2.7958.25487-5.96954.76142-7.4314,3.35433a3.627,3.627,0,0,0-.39908,2.3295,5.65048,5.65048,0,0,0,2.00449,3.73369V10.00593A1.71862,1.71862,0,0,1,19.08812,8.86563Z"/><rect class="cls-14" height="5.62909" transform="translate(35.09429 7.22286) rotate(55.9937)" width="6.2509" x="7.62868" y="33.80265"/><path class="cls-7" d="M11.77393,32.10156l5.959-4.94989L13.60712,19.763A24.33666,24.33666,0,0,0,3.03726,29.44934a2.89771,2.89771,0,0,0-.254,2.20308,10.74879,10.74879,0,0,0,2.75957,4.805,1.85377,1.85377,0,0,0,2.15.113l4.04751-2.73071A1,1,0,0,0,12.01,32.45148Z"/><path class="cls-7" d="M17.94,41.17c-.3.34-1.31-.08-1.31-.08s1,2.83.77,3.62-3.46.35-3.94.23c-1.31-.36-1.1-1.59-1.29-2.59a1.45942,1.45942,0,0,0-1.2-1.32l3.7-3.16a3.044,3.044,0,0,1,2.73,1.21C18.04,39.89,18.22,40.86,17.94,41.17Z"/><path class="cls-15" d="M17.4,39.08a10.88349,10.88349,0,0,1-5.23,3.27,1.45942,1.45942,0,0,0-1.2-1.32l3.7-3.16A3.044,3.044,0,0,1,17.4,39.08Z"/><path class="cls-7" d="M9.13219,40.24032l.72762,1.07849a.99282.99282,0,0,0,1.1087.40612,8.99838,8.99838,0,0,0,4.4685-3.00311.98458.98458,0,0,0,.02282-1.157L14.721,36.46974A1,1,0,0,0,13.33273,36.2l-3.93085,2.652A1,1,0,0,0,9.13219,40.24032Z"/><path class="cls-16" d="M23.19629,11.375a.49707.49707,0,0,1-.18555-.03564l-.66992-.26807a.50005.50005,0,0,1,.37109-.92871l.66993.26806a.50013.50013,0,0,1-.18555.96436Z"/><path class="cls-16" d="M25.44629,11.26807a.5.5,0,0,1-.22461-.94678l.32129-.16113a.50006.50006,0,1,1,.44922.89355l-.32129.16113A.49913.49913,0,0,1,25.44629,11.26807Z"/><path class="cls-16" d="M23.78613,15.42822a1.7016,1.7016,0,0,1-1.46191-.69922.5.5,0,1,1,.8125-.583c.10156.14111.28906.32421.81543.27392a.5065.5065,0,0,1,.5459.44971.49977.49977,0,0,1-.4502.54541C23.957,15.42383,23.87012,15.42822,23.78613,15.42822Z"/><path class="cls-15" d="M10.66406,35.06543a.49979.49979,0,0,1-.27929-.91455l1.07617-.72559a.5.5,0,0,0,.13476-.69336l-.23632-.35058a.49872.49872,0,0,1,.09472-.66455L14.19922,29.437a.5.5,0,1,1,.63867.76953l-2.39648,1.99073a1.49873,1.49873,0,0,1-.42188,2.05712L10.94336,34.98A.499.499,0,0,1,10.66406,35.06543Z"/><path class="cls-15" d="M11.77344,32.60156a.49755.49755,0,0,1-.38965-.187L10.084,30.79492a.49979.49979,0,1,1,.7793-.626l1.29981,1.61962a.5.5,0,0,1-.38965.813Z"/><circle class="cls-17" cx="11.87038" cy="27.69324" r="1.20592"/><path class="cls-18" d="M9.27013,25.00508A6.98943,6.98943,0,0,1,8.18147,23.7358a.99.99,0,0,1,.21937-1.2928l.68865-.57122a.9851.9851,0,0,1,1.42614.15833,7.89325,7.89325,0,0,0,.83651.96286,1.00342,1.00342,0,0,1-.05312,1.48639l-.69133.57344A1.01421,1.01421,0,0,1,9.27013,25.00508Z"/></svg>